<?xml version="1.0" encoding="UTF-8" standalone="no"?>
<!DOCTYPE svg PUBLIC "-//W3C//DTD SVG 1.1//EN"
 "http://www.w3.org/Graphics/SVG/1.1/DTD/svg11.dtd">
<!-- Generated by graphviz version 2.38.0 (20140413.2041)
 -->
<!-- Title: GraphVizGeneratedDOT Pages: 1 -->
<svg width="796pt" height="801pt"
 viewBox="0.00 0.00 795.50 801.00" xmlns="http://www.w3.org/2000/svg" xmlns:xlink="http://www.w3.org/1999/xlink">
<g id="graph0" class="graph" transform="scale(1 1) rotate(0) translate(4 797)">
<title>GraphVizGeneratedDOT</title>
<polygon fill="white" stroke="none" points="-4,4 -4,-797 791.5,-797 791.5,4 -4,4"/>
<!-- java.io.FilterInputStream -->
<g id="node1" class="node"><title>java.io.FilterInputStream</title>
<polygon fill="green" stroke="black" points="252,-151.5 252,-370.5 572,-370.5 572,-151.5 252,-151.5"/>
<text text-anchor="middle" x="412" y="-355.3" font-family="Times New Roman,serif" font-size="14.00">&lt;&lt;decorator&gt;&gt;</text>
<text text-anchor="middle" x="412" y="-340.3" font-family="Times New Roman,serif" font-size="14.00">java.io.FilterInputStream</text>
<polyline fill="none" stroke="black" points="252,-332.5 572,-332.5 "/>
<text text-anchor="start" x="260" y="-317.3" font-family="Times New Roman,serif" font-size="14.00"># in : java.io.InputStream </text>
<polyline fill="none" stroke="black" points="252,-309.5 572,-309.5 "/>
<text text-anchor="start" x="260" y="-294.3" font-family="Times New Roman,serif" font-size="14.00">+ read(byte[]) : int </text>
<text text-anchor="start" x="260" y="-279.3" font-family="Times New Roman,serif" font-size="14.00">+ skip(long) : long </text>
<text text-anchor="start" x="260" y="-264.3" font-family="Times New Roman,serif" font-size="14.00">+ read(byte[], int, int) : int </text>
<text text-anchor="start" x="260" y="-249.3" font-family="Times New Roman,serif" font-size="14.00">+ available() : int </text>
<text text-anchor="start" x="260" y="-234.3" font-family="Times New Roman,serif" font-size="14.00">+ mark(int) : void </text>
<text text-anchor="start" x="260" y="-219.3" font-family="Times New Roman,serif" font-size="14.00">+ reset() : void </text>
<text text-anchor="start" x="260" y="-204.3" font-family="Times New Roman,serif" font-size="14.00">+ close() : void </text>
<text text-anchor="start" x="260" y="-189.3" font-family="Times New Roman,serif" font-size="14.00">+ markSupported() : boolean </text>
<text text-anchor="start" x="260" y="-174.3" font-family="Times New Roman,serif" font-size="14.00"># java.io.FilterInputStream(java.io.InputStream) : void </text>
<text text-anchor="start" x="260" y="-159.3" font-family="Times New Roman,serif" font-size="14.00">+ read() : int </text>
</g>
<!-- java.io.InputStream -->
<g id="node4" class="node"><title>java.io.InputStream</title>
<polygon fill="green" stroke="black" points="192,-407.5 192,-626.5 412,-626.5 412,-407.5 192,-407.5"/>
<text text-anchor="middle" x="302" y="-611.3" font-family="Times New Roman,serif" font-size="14.00">&lt;&lt;Abstract&gt;&gt;</text>
<text text-anchor="middle" x="302" y="-596.3" font-family="Times New Roman,serif" font-size="14.00">java.io.InputStream</text>
<polyline fill="none" stroke="black" points="192,-588.5 412,-588.5 "/>
<text text-anchor="start" x="200" y="-573.3" font-family="Times New Roman,serif" font-size="14.00">&#45; MAX_SKIP_BUFFER_SIZE : int </text>
<polyline fill="none" stroke="black" points="192,-565.5 412,-565.5 "/>
<text text-anchor="start" x="200" y="-550.3" font-family="Times New Roman,serif" font-size="14.00">+ read(byte[]) : int </text>
<text text-anchor="start" x="200" y="-535.3" font-family="Times New Roman,serif" font-size="14.00">+ skip(long) : long </text>
<text text-anchor="start" x="200" y="-520.3" font-family="Times New Roman,serif" font-size="14.00">+ read(byte[], int, int) : int </text>
<text text-anchor="start" x="200" y="-505.3" font-family="Times New Roman,serif" font-size="14.00">+ available() : int </text>
<text text-anchor="start" x="200" y="-490.3" font-family="Times New Roman,serif" font-size="14.00">+ mark(int) : void </text>
<text text-anchor="start" x="200" y="-475.3" font-family="Times New Roman,serif" font-size="14.00">+ java.io.InputStream() : void </text>
<text text-anchor="start" x="200" y="-460.3" font-family="Times New Roman,serif" font-size="14.00">+ reset() : void </text>
<text text-anchor="start" x="200" y="-445.3" font-family="Times New Roman,serif" font-size="14.00">+ close() : void </text>
<text text-anchor="start" x="200" y="-430.3" font-family="Times New Roman,serif" font-size="14.00">+ markSupported() : boolean </text>
<text text-anchor="start" x="200" y="-415.3" font-family="Times New Roman,serif" font-size="14.00">+ read() : int </text>
</g>
<!-- java.io.FilterInputStream&#45;&gt;java.io.InputStream -->
<g id="edge4" class="edge"><title>java.io.FilterInputStream&#45;&gt;java.io.InputStream</title>
<path fill="none" stroke="black" d="M338.119,-370.824C333.977,-379.818 329.966,-388.937 326.165,-397.994"/>
<polygon fill="none" stroke="black" points="322.862,-396.823 322.284,-407.402 329.333,-399.492 322.862,-396.823"/>
</g>
<!-- java.io.FilterInputStream&#45;&gt;java.io.InputStream -->
<g id="edge5" class="edge"><title>java.io.FilterInputStream&#45;&gt;java.io.InputStream</title>
<path fill="none" stroke="black" d="M391.624,-370.824C387.937,-379.913 384.007,-389.129 379.917,-398.28"/>
<polygon fill="black" stroke="black" points="375.777,-407.402 375.812,-396.436 377.844,-402.849 379.91,-398.296 379.91,-398.296 379.91,-398.296 377.844,-402.849 384.008,-400.155 375.777,-407.402 375.777,-407.402"/>
<text text-anchor="middle" x="372.277" y="-396.202" font-family="Times New Roman,serif" font-size="14.00">1</text>
</g>
<!-- java.io.Closeable -->
<g id="node5" class="node"><title>java.io.Closeable</title>
<polygon fill="green" stroke="black" points="464.5,-690 464.5,-766 577.5,-766 577.5,-690 464.5,-690"/>
<text text-anchor="middle" x="521" y="-750.8" font-family="Times New Roman,serif" font-size="14.00">&lt;&lt;Interface&gt;&gt;</text>
<text text-anchor="middle" x="521" y="-735.8" font-family="Times New Roman,serif" font-size="14.00">&lt;&lt;component&gt;&gt;</text>
<text text-anchor="middle" x="521" y="-720.8" font-family="Times New Roman,serif" font-size="14.00">java.io.Closeable</text>
<polyline fill="none" stroke="black" points="464.5,-713 577.5,-713 "/>
<text text-anchor="start" x="472.5" y="-697.8" font-family="Times New Roman,serif" font-size="14.00">+ close() : void </text>
</g>
<!-- java.io.FilterInputStream&#45;&gt;java.io.Closeable -->
<g id="edge1" class="edge"><title>java.io.FilterInputStream&#45;&gt;java.io.Closeable</title>
<path fill="none" stroke="black" d="M439.254,-370.813C442.238,-383.013 445.205,-395.267 448,-407 471.074,-503.879 496.667,-617.624 510.584,-680.054"/>
<polygon fill="black" stroke="black" points="507.207,-680.991 512.798,-689.991 514.04,-679.469 507.207,-680.991"/>
<text text-anchor="middle" x="449.317" y="-519.396" font-family="Times New Roman,serif" font-size="14.00">decorates</text>
</g>
<!-- java.io.IOException -->
<g id="node2" class="node"><title>java.io.IOException</title>
<polygon fill="none" stroke="black" points="0,-663.5 0,-792.5 392,-792.5 392,-663.5 0,-663.5"/>
<text text-anchor="middle" x="196" y="-777.3" font-family="Times New Roman,serif" font-size="14.00">java.io.IOException</text>
<polyline fill="none" stroke="black" points="0,-769.5 392,-769.5 "/>
<text text-anchor="start" x="8" y="-754.3" font-family="Times New Roman,serif" font-size="14.00">serialVersionUID : long </text>
<text text-anchor="middle" x="196" y="-739.3" font-family="Times New Roman,serif" font-size="14.00"> </text>
<polyline fill="none" stroke="black" points="0,-731.5 392,-731.5 "/>
<text text-anchor="start" x="8" y="-716.3" font-family="Times New Roman,serif" font-size="14.00">+ java.io.IOException(java.lang.String, java.lang.Throwable) : void </text>
<text text-anchor="start" x="8" y="-701.3" font-family="Times New Roman,serif" font-size="14.00">+ java.io.IOException(java.lang.Throwable) : void </text>
<text text-anchor="start" x="8" y="-686.3" font-family="Times New Roman,serif" font-size="14.00">+ java.io.IOException() : void </text>
<text text-anchor="start" x="8" y="-671.3" font-family="Times New Roman,serif" font-size="14.00">+ java.io.IOException(java.lang.String) : void </text>
</g>
<!-- problem.DecryptionInputStream -->
<g id="node3" class="node"><title>problem.DecryptionInputStream</title>
<polygon fill="green" stroke="black" points="167.5,-0.5 167.5,-114.5 656.5,-114.5 656.5,-0.5 167.5,-0.5"/>
<text text-anchor="middle" x="412" y="-99.3" font-family="Times New Roman,serif" font-size="14.00">&lt;&lt;decorator&gt;&gt;</text>
<text text-anchor="middle" x="412" y="-84.3" font-family="Times New Roman,serif" font-size="14.00">problem.DecryptionInputStream</text>
<polyline fill="none" stroke="black" points="167.5,-76.5 656.5,-76.5 "/>
<text text-anchor="start" x="175.5" y="-61.3" font-family="Times New Roman,serif" font-size="14.00">encryption : problem.IDecryption </text>
<text text-anchor="middle" x="412" y="-46.3" font-family="Times New Roman,serif" font-size="14.00"> </text>
<polyline fill="none" stroke="black" points="167.5,-38.5 656.5,-38.5 "/>
<text text-anchor="start" x="175.5" y="-23.3" font-family="Times New Roman,serif" font-size="14.00"># problem.DecryptionInputStream(java.io.InputStream, problem.IDecryption) : void </text>
<text text-anchor="start" x="175.5" y="-8.3" font-family="Times New Roman,serif" font-size="14.00">+ read() : int </text>
</g>
<!-- problem.DecryptionInputStream&#45;&gt;java.io.FilterInputStream -->
<g id="edge6" class="edge"><title>problem.DecryptionInputStream&#45;&gt;java.io.FilterInputStream</title>
<path fill="none" stroke="black" d="M412,-114.629C412,-123.095 412,-132.088 412,-141.288"/>
<polygon fill="none" stroke="black" points="408.5,-141.336 412,-151.336 415.5,-141.336 408.5,-141.336"/>
</g>
<!-- problem.DecryptionInputStream&#45;&gt;java.io.InputStream -->
<g id="edge2" class="edge"><title>problem.DecryptionInputStream&#45;&gt;java.io.InputStream</title>
<path fill="none" stroke="black" stroke-dasharray="5,2" d="M250.063,-114.628C236.734,-124.837 224.964,-136.858 216,-151 163.654,-233.586 190.14,-276.704 216,-371 218.47,-380.008 221.661,-389.024 225.355,-397.905"/>
<polygon fill="black" stroke="black" points="229.377,-407.105 221.248,-399.745 227.374,-402.524 225.371,-397.943 225.371,-397.943 225.371,-397.943 227.374,-402.524 229.495,-396.14 229.377,-407.105 229.377,-407.105"/>
</g>
<!-- problem.IDecryption -->
<g id="node6" class="node"><title>problem.IDecryption</title>
<polygon fill="none" stroke="black" points="644.5,-230.5 644.5,-291.5 787.5,-291.5 787.5,-230.5 644.5,-230.5"/>
<text text-anchor="middle" x="716" y="-276.3" font-family="Times New Roman,serif" font-size="14.00">&lt;&lt;Interface&gt;&gt;</text>
<text text-anchor="middle" x="716" y="-261.3" font-family="Times New Roman,serif" font-size="14.00">problem.IDecryption</text>
<polyline fill="none" stroke="black" points="644.5,-253.5 787.5,-253.5 "/>
<text text-anchor="start" x="652.5" y="-238.3" font-family="Times New Roman,serif" font-size="14.00">+ decrypt(char) : char </text>
</g>
<!-- problem.DecryptionInputStream&#45;&gt;problem.IDecryption -->
<g id="edge8" class="edge"><title>problem.DecryptionInputStream&#45;&gt;problem.IDecryption</title>
<path fill="none" stroke="black" d="M547.039,-114.547C568.15,-125.46 589.183,-137.694 608,-151 636.796,-171.362 664.693,-199.815 684.918,-222.545"/>
<polygon fill="black" stroke="black" points="691.742,-230.323 681.764,-225.773 688.444,-226.565 685.147,-222.806 685.147,-222.806 685.147,-222.806 688.444,-226.565 688.53,-219.838 691.742,-230.323 691.742,-230.323"/>
<text text-anchor="middle" x="688.242" y="-219.123" font-family="Times New Roman,serif" font-size="14.00">1</text>
</g>
<!-- java.io.InputStream&#45;&gt;java.io.IOException -->
<g id="edge3" class="edge"><title>java.io.InputStream&#45;&gt;java.io.IOException</title>
<path fill="none" stroke="black" stroke-dasharray="5,2" d="M246.827,-626.785C242.122,-636.061 237.441,-645.291 232.931,-654.183"/>
<polygon fill="black" stroke="black" points="228.299,-663.315 228.809,-652.361 230.561,-658.856 232.823,-654.397 232.823,-654.397 232.823,-654.397 230.561,-658.856 236.836,-656.432 228.299,-663.315 228.299,-663.315"/>
</g>
<!-- java.io.InputStream&#45;&gt;java.io.Closeable -->
<g id="edge7" class="edge"><title>java.io.InputStream&#45;&gt;java.io.Closeable</title>
<path fill="none" stroke="black" stroke-dasharray="5,2" d="M412.142,-623.112C434.137,-644.103 456.097,-665.061 474.474,-682.598"/>
<polygon fill="none" stroke="black" points="472.469,-685.523 482.119,-689.895 477.301,-680.459 472.469,-685.523"/>
</g>
</g>
</svg>
